<svg version="1.1" id="Layer_1" xmlns="http://www.w3.org/2000/svg" xmlns:xlink="http://www.w3.org/1999/xlink" x="0px" y="0px"
	 width="100%" viewBox="0 0 225 225" enable-background="new 0 0 225 225" xml:space="preserve">
<path fill="#FEFEFE" opacity="1.000000" stroke="none" 
	d="
M147.000000,226.000000 
	C98.000000,226.000000 49.500008,226.000000 1.000006,226.000000 
	C1.000004,151.000000 1.000004,76.000015 1.000002,1.000017 
	C75.999992,1.000011 150.999985,1.000011 225.999969,1.000005 
	C225.999985,75.999985 225.999985,150.999969 226.000000,225.999969 
	C199.833328,226.000000 173.666672,226.000000 147.000000,226.000000 
M202.656265,168.292068 
	C202.475693,167.333923 202.295120,166.375763 202.049957,164.760468 
	C195.689545,154.840683 189.329132,144.920898 182.838409,134.323792 
	C181.533875,131.887360 180.229324,129.450928 179.736267,127.016068 
	C181.143005,126.416008 182.503632,125.644150 183.966080,125.251686 
	C187.001282,124.437180 190.145157,123.128899 193.139023,123.364143 
	C195.254898,123.530388 197.197662,125.899818 199.623459,127.564056 
	C200.383469,125.404869 201.558487,122.842705 202.086761,120.153488 
	C202.276840,119.185776 201.081787,117.100594 200.225632,116.920654 
	C196.723953,116.184708 193.096207,116.073708 189.542908,115.544304 
	C188.353882,115.367149 187.151779,114.778313 186.125122,114.115265 
	C184.040497,112.768959 182.231155,110.364441 180.023605,109.963379 
	C174.260101,108.916267 168.263474,107.859108 162.508041,108.395821 
	C155.665421,109.033905 148.977478,111.331078 142.222519,112.909355 
	C141.460754,114.688728 140.184067,116.211594 138.566727,116.803238 
	C112.465950,126.351326 91.093056,142.628326 72.539787,162.946136 
	C72.071793,163.458633 71.966599,164.302429 71.547348,165.355606 
	C76.776787,162.385818 81.526459,159.658188 86.304153,156.980576 
	C105.694534,146.113510 126.128525,137.926849 148.061325,133.711517 
	C149.502487,135.884766 150.943649,138.058014 152.686005,140.883469 
	C158.265381,149.621521 163.844742,158.359558 169.784363,167.709442 
	C170.206146,167.853134 170.627945,167.996826 171.959976,168.357986 
	C181.968506,168.280151 191.977036,168.202316 202.656265,168.292068 
M22.488941,166.504105 
	C23.314993,167.122253 24.133972,168.266800 24.968185,168.278000 
	C34.430820,168.405167 43.896278,168.404022 53.359482,168.300354 
	C54.499592,168.287888 55.630867,167.469177 57.342072,166.644455 
	C74.601151,146.605072 95.134399,130.547180 117.844795,116.995178 
	C104.506912,119.324387 92.480759,124.945549 80.633934,131.061707 
	C80.358513,130.744064 80.083084,130.426422 79.807663,130.108780 
	C90.688171,112.929001 101.568687,95.749222 112.800583,78.014618 
	C119.847137,89.161522 126.474327,99.645035 132.881149,109.779938 
	C142.898193,108.891182 150.628952,101.571594 160.612915,102.463463 
	C160.831329,102.482971 161.084427,102.114143 161.908539,101.461342 
	C145.648682,75.703865 129.346710,49.879696 112.820328,23.700029 
	C95.898422,50.438503 79.333046,76.552307 62.831882,102.706612 
	C49.532230,123.786514 36.310143,144.915359 22.488941,166.504105 
z"/>
<path fill="#161A62" opacity="1.000000" stroke="none" 
	d="
M23.053642,166.022491 
	C36.310143,144.915359 49.532230,123.786514 62.831882,102.706612 
	C79.333046,76.552307 95.898422,50.438503 112.820328,23.700029 
	C129.346710,49.879696 145.648682,75.703865 161.908539,101.461342 
	C161.084427,102.114143 160.831329,102.482971 160.612915,102.463463 
	C150.628952,101.571594 142.898193,108.891182 132.881149,109.779938 
	C126.474327,99.645035 119.847137,89.161522 112.800583,78.014618 
	C101.568687,95.749222 90.688171,112.929001 79.807663,130.108780 
	C80.083084,130.426422 80.358513,130.744064 80.633934,131.061707 
	C92.480759,124.945549 104.506912,119.324387 117.844795,116.995178 
	C95.134399,130.547180 74.601151,146.605072 56.601055,166.835388 
	C48.362808,167.016098 40.863625,167.103088 33.369225,166.952179 
	C29.925854,166.882843 26.491879,166.346863 23.053642,166.022491 
z"/>
<path fill="#C13B2C" opacity="1.000000" stroke="none" 
	d="
M147.855347,133.071655 
	C126.128525,137.926849 105.694534,146.113510 86.304153,156.980576 
	C81.526459,159.658188 76.776787,162.385818 71.547348,165.355606 
	C71.966599,164.302429 72.071793,163.458633 72.539787,162.946136 
	C91.093056,142.628326 112.465950,126.351326 138.566727,116.803238 
	C140.184067,116.211594 141.460754,114.688728 142.222519,112.909355 
	C148.977478,111.331078 155.665421,109.033905 162.508041,108.395821 
	C168.263474,107.859108 174.260101,108.916267 180.023605,109.963379 
	C182.231155,110.364441 184.040497,112.768959 186.125122,114.115265 
	C187.151779,114.778313 188.353882,115.367149 189.542908,115.544304 
	C193.096207,116.073708 196.723953,116.184708 200.225632,116.920654 
	C201.081787,117.100594 202.276840,119.185776 202.086761,120.153488 
	C201.558487,122.842705 200.383469,125.404869 199.623459,127.564056 
	C197.197662,125.899818 195.254898,123.530388 193.139023,123.364143 
	C190.145157,123.128899 187.001282,124.437180 183.966080,125.251686 
	C182.503632,125.644150 181.143005,126.416008 178.918243,127.029205 
	C168.018585,129.052109 157.936966,131.061890 147.855347,133.071655 
z"/>
<path fill="#C13B2C" opacity="1.000000" stroke="none" 
	d="
M182.968719,135.001114 
	C189.329132,144.920898 195.689545,154.840683 202.050781,165.540710 
	C202.029587,166.922150 202.007568,167.523315 201.985565,168.124496 
	C191.977036,168.202316 181.968506,168.280151 171.316513,167.968140 
	C170.256744,167.418045 169.840424,167.257828 169.424118,167.097610 
	C163.844742,158.359558 158.265381,149.621521 152.983307,140.493088 
	C163.176651,138.402176 173.072693,136.701645 182.968719,135.001114 
z"/>
<path fill="#962F21" opacity="1.000000" stroke="none" 
	d="
M182.903564,134.662445 
	C173.072693,136.701645 163.176651,138.402176 152.832718,140.166992 
	C150.943649,138.058014 149.502487,135.884766 147.958344,133.391586 
	C157.936966,131.061890 168.018585,129.052109 178.512482,127.028427 
	C180.229324,129.450928 181.533875,131.887360 182.903564,134.662445 
z"/>
<path fill="#03045A" opacity="1.000000" stroke="none" 
	d="
M22.771292,166.263306 
	C26.491879,166.346863 29.925854,166.882843 33.369225,166.952179 
	C40.863625,167.103088 48.362808,167.016098 56.313141,167.025238 
	C55.630867,167.469177 54.499592,168.287888 53.359482,168.300354 
	C43.896278,168.404022 34.430820,168.405167 24.968185,168.278000 
	C24.133972,168.266800 23.314993,167.122253 22.771292,166.263306 
z"/>
<path fill="#BF2D1A" opacity="1.000000" stroke="none" 
	d="
M202.320923,168.208282 
	C202.007568,167.523315 202.029587,166.922150 202.083069,165.869293 
	C202.295120,166.375763 202.475693,167.333923 202.320923,168.208282 
z"/>
<path fill="#BF2D1A" opacity="1.000000" stroke="none" 
	d="
M169.604248,167.403534 
	C169.840424,167.257828 170.256744,167.418045 170.861389,167.859406 
	C170.627945,167.996826 170.206146,167.853134 169.604248,167.403534 
z"/>
</svg>